# xmcd CD database file
#
# Track frame offsets:
#	150
#	20738
#	51483
#
# Disc length: 1005 seconds
#
# Revision: 3
# Processed by: cddbd v1.5.2PL0 Copyright (c) Steve Scherf et al.
# Submitted via: CDex 1.70beta3
#
DISCID=2503eb03
DTITLE=SOIL&"PIMP" SESSIONS - マシロケ
DYEAR=2007
DGENRE=Jazz
TTITLE0=マシロケ
TTITLE1=MANDELAS DREAM
TTITLE2=SESSION 061003
EXTD=YEAR: 2007
EXTT0=
EXTT1=
EXTT2=
PLAYORDER=
